<!DOCTYPE svg PUBLIC "-//W3C//DTD SVG 1.1//EN" "http://www.w3.org/Graphics/SVG/1.1/DTD/svg11.dtd">
<!-- Uploaded to: SVG Repo, www.svgrepo.com, Transformed by: SVG Repo Mixer Tools -->
<svg width="109px" height="109px" viewBox="-60 -60 520.00 520.00" fill="none" xmlns="http://www.w3.org/2000/svg" stroke="#d31717">
<g id="SVGRepo_bgCarrier" stroke-width="0"/>
<g id="SVGRepo_tracerCarrier" stroke-linecap="round" stroke-linejoin="round"/>
<g id="SVGRepo_iconCarrier"> <path d="M74.4691 327.769C66.6809 289.493 59 252.638 59 213.5C59 207.973 89.5694 179.27 111.035 174.385C132.5 169.5 192 182.385 208 178.385C224 174.385 254.828 148.445 279.593 135.383C289.456 130.18 299.171 127.643 307.901 132.894" stroke="#000000" stroke-opacity="0.9" stroke-width="11.599999999999998" stroke-linecap="round" stroke-linejoin="round"/> <path d="M95.9999 328C95.9999 328 82.0968 294.136 84.0955 285.67C86.0942 277.204 104.083 263.447 112.077 256.039C120.072 248.632 139.06 249.69 168.041 250.748C197.022 251.807 232 256.039 232 256.039" stroke="#000000" stroke-opacity="0.9" stroke-width="11.599999999999998" stroke-linecap="round" stroke-linejoin="round"/> <path d="M268.412 194.947C259.605 206.34 218.323 239.213 228.899 328.093" stroke="#000000" stroke-opacity="0.9" stroke-width="11.599999999999998" stroke-linecap="round" stroke-linejoin="round"/> <path d="M59.3699 213C48.8496 231.836 49.8402 251.726 47 271.485" stroke="#000000" stroke-opacity="0.9" stroke-width="11.599999999999998" stroke-linecap="round" stroke-linejoin="round"/> <path d="M308.209 131.083C308.115 122.403 317.789 87.3346 330.708 77.2683C347.565 64.1332 347.565 84.5973 345.003 94.5017C338.626 119.153 314.603 122.619 312.066 135.4C308.441 153.654 330.708 228 295 228C266.87 228 267.95 192.81 270.924 175.331C272.963 163.355 275.995 149.123 277.437 137.02C273.256 108.674 263.835 90.479 249.175 82.4337C227.184 70.3657 238.953 132.703 277.437 131.083" stroke="#000000" stroke-opacity="0.9" stroke-width="11.599999999999998" stroke-linecap="round" stroke-linejoin="round"/> </g>
</svg>